HIERARCHY
ROOT Hips
{
	OFFSET 0.000000 0.000000 0.000000
	CHANNELS 6 Xposition Yposition Zposition Xrotation Yrotation Zrotation
	JOINT Thigh.L
	{
		OFFSET 0.053236 0.030187 -0.090774
		CHANNELS 3 Xrotation Yrotation Zrotation
		JOINT Shin.L
		{
			OFFSET 0.052482 0.016735 -0.407507
			CHANNELS 3 Xrotation Yrotation Zrotation
			JOINT Foot.L
			{
				OFFSET -0.040584 0.032474 -0.426895
				CHANNELS 3 Xrotation Yrotation Zrotation
				JOINT Toe.L
				{
					OFFSET 0.044180 -0.117973 -0.063005
					CHANNELS 3 Xrotation Yrotation Zrotation
					End Site
					{
						OFFSET 0.000000 0.050000 0.000000
					}
				}
			}
		}
	}
	JOINT Thigh.R
	{
		OFFSET -0.058469 0.027668 -0.100990
		CHANNELS 3 Xrotation Yrotation Zrotation
		JOINT Shin.R
		{
			OFFSET -0.042071 0.021908 -0.391408
			CHANNELS 3 Xrotation Yrotation Zrotation
			JOINT Foot.R
			{
				OFFSET 0.015211 0.021194 -0.435713
				CHANNELS 3 Xrotation Yrotation Zrotation
				JOINT Toe.R
				{
					OFFSET -0.036737 -0.118745 -0.063057
					CHANNELS 3 Xrotation Yrotation Zrotation
					End Site
					{
						OFFSET 0.000000 0.050000 0.000000
					}
				}
			}
		}
	}
	JOINT Spine
	{
		OFFSET -0.001793 0.018930 0.107309
		CHANNELS 3 Xrotation Yrotation Zrotation
		JOINT Spine.2
		{
			OFFSET 0.006302 0.002371 0.131408
			CHANNELS 3 Xrotation Yrotation Zrotation
			JOINT Chest
			{
				OFFSET -0.010231 -0.022848 0.048688
				CHANNELS 3 Xrotation Yrotation Zrotation
				JOINT Neck
				{
					OFFSET -0.009256 0.028789 0.163103
					CHANNELS 3 Xrotation Yrotation Zrotation
					JOINT Head
					{
						OFFSET 0.021936 -0.023438 0.169146
						CHANNELS 3 Xrotation Yrotation Zrotation
						End Site
						{
							OFFSET 0.000000 0.050000 0.000000
						}
					}
				}
				JOINT Clavicle.L
				{
					OFFSET 0.043158 0.008321 0.083243
					CHANNELS 3 Xrotation Yrotation Zrotation
					JOINT UpperArm.L
					{
						OFFSET 0.105425 0.014182 0.060116
						CHANNELS 3 Xrotation Yrotation Zrotation
						JOINT ForeArm.L
						{
							OFFSET 0.261488 0.034950 -0.074544
							CHANNELS 3 Xrotation Yrotation Zrotation
							JOINT Hand.L
							{
								OFFSET 0.259160 0.006451 0.020691
								CHANNELS 3 Xrotation Yrotation Zrotation
								JOINT Thumb1.L
								{
									OFFSET 0.154583 0.002977 0.009547
									CHANNELS 3 Xrotation Yrotation Zrotation
									JOINT Thumb2.L
									{
										OFFSET 0.029896 0.000744 0.002387
										CHANNELS 3 Xrotation Yrotation Zrotation
										End Site
										{
											OFFSET 0.024913 0.000620 0.001989
										}
									}
								}
								JOINT Index1.L
								{
									OFFSET 0.137583 0.002977 0.009547
									CHANNELS 3 Xrotation Yrotation Zrotation
									JOINT Index2.L
									{
										OFFSET 0.029896 0.000744 0.002387
										CHANNELS 3 Xrotation Yrotation Zrotation
										JOINT Index3.L
										{
											OFFSET 0.021923 0.000546 0.001750
											CHANNELS 3 Xrotation Yrotation Zrotation
											End Site
											{
												OFFSET 0.017937 0.000447 0.001432
											}
										}
									}
								}
								JOINT Middle1.L
								{
									OFFSET 0.119583 0.002977 0.009547
									CHANNELS 3 Xrotation Yrotation Zrotation
									JOINT Middle2.L
									{
										OFFSET 0.030892 0.000769 0.002466
										CHANNELS 3 Xrotation Yrotation Zrotation
										JOINT Middle3.L
										{
											OFFSET 0.021923 0.000546 0.001750
											CHANNELS 3 Xrotation Yrotation Zrotation
											End Site
											{
												OFFSET 0.017937 0.000447 0.001432
											}
										}
									}
								}
								JOINT Ring1.L
								{
									OFFSET 0.101583 0.002977 0.009547
									CHANNELS 3 Xrotation Yrotation Zrotation
									JOINT Ring2.L
									{
										OFFSET 0.028899 0.000719 0.002307
										CHANNELS 3 Xrotation Yrotation Zrotation
										JOINT Ring3.L
										{
											OFFSET 0.019930 0.000496 0.001591
											CHANNELS 3 Xrotation Yrotation Zrotation
											End Site
											{
												OFFSET 0.016941 0.000422 0.001353
											}
										}
									}
								}
								JOINT Pinky1.L
								{
									OFFSET 0.085583 0.002977 0.009547
									CHANNELS 3 Xrotation Yrotation Zrotation
									JOINT Pinky2.L
									{
										OFFSET 0.023917 0.000595 0.001909
										CHANNELS 3 Xrotation Yrotation Zrotation
										JOINT Pinky3.L
										{
											OFFSET 0.016941 0.000422 0.001353
											CHANNELS 3 Xrotation Yrotation Zrotation
											End Site
											{
												OFFSET 0.013951 0.000347 0.001114
											}
										}
									}
								}
							}
						}
					}
				}
				JOINT Clavicle.R
				{
					OFFSET -0.041093 0.014402 0.082651
					CHANNELS 3 Xrotation Yrotation Zrotation
					JOINT UpperArm.R
					{
						OFFSET -0.091010 0.009223 0.056026
						CHANNELS 3 Xrotation Yrotation Zrotation
						JOINT ForeArm.R
						{
							OFFSET -0.277239 0.022468 -0.042453
							CHANNELS 3 Xrotation Yrotation Zrotation
							JOINT Hand.R
							{
								OFFSET -0.256016 0.018792 -0.003571
								CHANNELS 3 Xrotation Yrotation Zrotation
								JOINT Thumb1.R
								{
									OFFSET -0.154666 0.008784 -0.001669
									CHANNELS 3 Xrotation Yrotation Zrotation
									JOINT Thumb2.R
									{
										OFFSET -0.029917 0.002196 -0.000417
										CHANNELS 3 Xrotation Yrotation Zrotation
										End Site
										{
											OFFSET -0.024931 0.001830 -0.000348
										}
									}
								}
								JOINT Index1.R
								{
									OFFSET -0.137666 0.008784 -0.001669
									CHANNELS 3 Xrotation Yrotation Zrotation
									JOINT Index2.R
									{
										OFFSET -0.029917 0.002196 -0.000417
										CHANNELS 3 Xrotation Yrotation Zrotation
										JOINT Index3.R
										{
											OFFSET -0.021939 0.001610 -0.000306
											CHANNELS 3 Xrotation Yrotation Zrotation
											End Site
											{
												OFFSET -0.017950 0.001318 -0.000250
											}
										}
									}
								}
								JOINT Middle1.R
								{
									OFFSET -0.119666 0.008784 -0.001669
									CHANNELS 3 Xrotation Yrotation Zrotation
									JOINT Middle2.R
									{
										OFFSET -0.030914 0.002269 -0.000431
										CHANNELS 3 Xrotation Yrotation Zrotation
										JOINT Middle3.R
										{
											OFFSET -0.021939 0.001610 -0.000306
											CHANNELS 3 Xrotation Yrotation Zrotation
											End Site
											{
												OFFSET -0.017950 0.001318 -0.000250
											}
										}
									}
								}
								JOINT Ring1.R
								{
									OFFSET -0.101666 0.008784 -0.001669
									CHANNELS 3 Xrotation Yrotation Zrotation
									JOINT Ring2.R
									{
										OFFSET -0.028919 0.002123 -0.000403
										CHANNELS 3 Xrotation Yrotation Zrotation
										JOINT Ring3.R
										{
											OFFSET -0.019944 0.001464 -0.000278
											CHANNELS 3 Xrotation Yrotation Zrotation
											End Site
											{
												OFFSET -0.016953 0.001244 -0.000236
											}
										}
									}
								}
								JOINT Pinky1.R
								{
									OFFSET -0.085666 0.008784 -0.001669
									CHANNELS 3 Xrotation Yrotation Zrotation
									JOINT Pinky2.R
									{
										OFFSET -0.023933 0.001757 -0.000334
										CHANNELS 3 Xrotation Yrotation Zrotation
										JOINT Pinky3.R
										{
											OFFSET -0.016953 0.001244 -0.000236
											CHANNELS 3 Xrotation Yrotation Zrotation
											End Site
											{
												OFFSET -0.013961 0.001025 -0.000195
											}
										}
									}
								}
							}
						}
					}
				}
			}
		}
	}
}
MOTION
Frames: 7
Frame Time: 0.04166667
0.121755 -0.138241 1.001442 -13.053405 -2.511111 9.700234 -20.196718 -10.654788 0.422262 54.828110 6.462949 -5.102352 -17.129049 5.831662 5.993493 -0.599614 -6.741259 -0.931746 -16.159595 1.626866 -3.808215 48.497596 -8.634069 -7.191976 -24.424787 7.234832 -12.754559 2.366134 -1.761341 0.474830 20.238711 0.271233 4.259226 8.020394 -0.874333 -5.198267 -6.311594 0.722934 2.770425 4.629832 1.676035 12.029430 7.928171 -4.601566 7.744173 -1.471410 8.307179 -18.203724 2.086930 10.074627 -15.528457 2.373721 -12.236495 -98.465755 -6.610914 -7.089700 -20.508535 0.000000 0.000000 0.000000 0.000000 0.000000 0.000000 0.000000 0.000000 0.000000 0.000000 0.000000 0.000000 0.000000 0.000000 0.000000 0.000000 0.000000 0.000000 0.000000 0.000000 0.000000 0.000000 0.000000 0.000000 0.000000 0.000000 0.000000 0.000000 0.000000 0.000000 0.000000 0.000000 0.000000 0.000000 0.000000 0.000000 0.000000 0.000000 0.000000 0.000000 0.000000 0.000000 -1.949013 -3.815647 15.441021 5.229864 -17.263311 12.618740 -7.511230 20.937938 115.314093 -5.174665 -1.274179 10.422284 0.000000 0.000000 0.000000 0.000000 0.000000 0.000000 0.000000 0.000000 0.000000 0.000000 0.000000 0.000000 0.000000 0.000000 0.000000 0.000000 0.000000 0.000000 0.000000 0.000000 0.000000 0.000000 0.000000 0.000000 0.000000 0.000000 0.000000 0.000000 0.000000 0.000000 0.000000 0.000000 0.000000 0.000000 0.000000 0.000000 0.000000 0.000000 0.000000 0.000000 0.000000 0.000000
0.128251 -0.138313 1.002046 -13.205873 -2.831455 9.958693 -20.989580 -11.048209 0.171208 56.233400 6.399340 -4.964856 -17.723577 4.462820 7.799223 -0.651704 -6.603593 -0.902041 -15.842518 1.605113 -3.874242 48.380373 -8.680406 -7.271076 -24.526648 7.509514 -12.759169 2.324815 -1.930042 0.444945 20.399826 0.317825 4.391171 7.957833 -0.850995 -5.249771 -6.366437 0.715333 2.812579 4.525788 1.829620 12.197919 7.870252 -4.649389 8.113759 -1.805484 7.977740 -18.632990 1.756679 10.415812 -15.892278 2.077906 -11.982816 -97.183981 -6.940629 -6.907148 -20.222483 0.000000 0.000000 0.000000 0.000000 0.000000 0.000000 0.000000 0.000000 0.000000 0.000000 0.000000 0.000000 0.000000 0.000000 0.000000 0.000000 0.000000 0.000000 0.000000 0.000000 0.000000 0.000000 0.000000 0.000000 0.000000 0.000000 0.000000 0.000000 0.000000 0.000000 0.000000 0.000000 0.000000 0.000000 0.000000 0.000000 0.000000 0.000000 0.000000 0.000000 0.000000 0.000000 -2.190439 -3.417856 15.846908 4.785547 -17.202819 13.058021 -7.547415 20.606482 114.239518 -5.713434 -1.364099 10.308020 0.000000 0.000000 0.000000 0.000000 0.000000 0.000000 0.000000 0.000000 0.000000 0.000000 0.000000 0.000000 0.000000 0.000000 0.000000 0.000000 0.000000 0.000000 0.000000 0.000000 0.000000 0.000000 0.000000 0.000000 0.000000 0.000000 0.000000 0.000000 0.000000 0.000000 0.000000 0.000000 0.000000 0.000000 0.000000 0.000000 0.000000 0.000000 0.000000 0.000000 0.000000 0.000000
0.137422 -0.142021 1.003061 -13.519980 -3.268734 10.153797 -21.764799 -11.547764 -0.012390 57.355553 6.345661 -4.807750 -17.419982 4.231130 8.335888 -0.679421 -6.471213 -0.891624 -15.503870 1.569910 -3.986930 48.179702 -8.662135 -7.247643 -24.523717 7.783040 -12.802920 2.286820 -2.111193 0.449757 20.423495 0.353694 4.541183 7.983849 -0.807352 -5.286581 -6.584868 0.719459 2.862271 4.693829 2.015045 12.412985 8.021958 -4.695251 8.497445 -2.035872 7.737062 -19.098197 1.512674 10.623593 -16.365818 1.975127 -12.014448 -96.000707 -6.527699 -6.766848 -20.138065 0.000000 0.000000 0.000000 0.000000 0.000000 0.000000 0.000000 0.000000 0.000000 0.000000 0.000000 0.000000 0.000000 0.000000 0.000000 0.000000 0.000000 0.000000 0.000000 0.000000 0.000000 0.000000 0.000000 0.000000 0.000000 0.000000 0.000000 0.000000 0.000000 0.000000 0.000000 0.000000 0.000000 0.000000 0.000000 0.000000 0.000000 0.000000 0.000000 0.000000 0.000000 0.000000 -2.352640 -3.003452 16.322401 4.384886 -17.113408 13.547985 -7.359989 20.465324 113.079186 -5.993591 -1.399842 10.087752 0.000000 0.000000 0.000000 0.000000 0.000000 0.000000 0.000000 0.000000 0.000000 0.000000 0.000000 0.000000 0.000000 0.000000 0.000000 0.000000 0.000000 0.000000 0.000000 0.000000 0.000000 0.000000 0.000000 0.000000 0.000000 0.000000 0.000000 0.000000 0.000000 0.000000 0.000000 0.000000 0.000000 0.000000 0.000000 0.000000 0.000000 0.000000 0.000000 0.000000 0.000000 0.000000
0.144521 -0.143945 1.004034 -13.789015 -3.621938 10.387821 -22.213869 -12.029352 -0.056768 57.820716 6.138130 -4.723502 -17.142453 4.531900 8.339279 -0.735582 -6.449550 -0.888620 -15.102049 1.541063 -4.119189 47.987354 -8.638385 -7.226667 -24.570544 8.028079 -12.814397 2.262599 -2.277593 0.449851 20.411882 0.344712 4.622519 8.046200 -0.810831 -5.331916 -6.704189 0.698981 2.883214 4.787183 2.165385 12.606180 8.057003 -4.626137 8.722881 -2.262572 7.489858 -19.463809 1.190423 10.997907 -16.802501 1.924954 -11.971464 -94.949950 -6.063055 -6.202384 -19.882485 0.000000 0.000000 0.000000 0.000000 0.000000 0.000000 0.000000 0.000000 0.000000 0.000000 0.000000 0.000000 0.000000 0.000000 0.000000 0.000000 0.000000 0.000000 0.000000 0.000000 0.000000 0.000000 0.000000 0.000000 0.000000 0.000000 0.000000 0.000000 0.000000 0.000000 0.000000 0.000000 0.000000 0.000000 0.000000 0.000000 0.000000 0.000000 0.000000 0.000000 0.000000 0.000000 -2.560661 -2.668517 16.649048 3.911071 -17.113551 14.058445 -7.279007 20.270935 111.786238 -6.249665 -1.774864 10.000541 0.000000 0.000000 0.000000 0.000000 0.000000 0.000000 0.000000 0.000000 0.000000 0.000000 0.000000 0.000000 0.000000 0.000000 0.000000 0.000000 0.000000 0.000000 0.000000 0.000000 0.000000 0.000000 0.000000 0.000000 0.000000 0.000000 0.000000 0.000000 0.000000 0.000000 0.000000 0.000000 0.000000 0.000000 0.000000 0.000000 0.000000 0.000000 0.000000 0.000000 0.000000 0.000000
0.150418 -0.145764 1.004994 -14.075832 -3.938902 10.668739 -22.554871 -12.645784 -0.053985 58.062656 5.912529 -4.646622 -16.656180 4.929481 8.270356 -0.791192 -6.389563 -0.864927 -14.710256 1.595894 -4.292816 47.893000 -8.685622 -7.231122 -24.562580 8.170601 -12.808755 2.232982 -2.463328 0.442738 20.482853 0.366270 4.677921 8.093141 -0.797480 -5.326509 -6.818955 0.647662 2.896400 4.951282 2.324040 12.606042 8.011696 -4.577900 8.731928 -2.608769 7.103873 -19.995217 0.766386 11.576735 -17.333139 1.881808 -11.930931 -93.269667 -5.504356 -5.838529 -19.473098 0.000000 0.000000 0.000000 0.000000 0.000000 0.000000 0.000000 0.000000 0.000000 0.000000 0.000000 0.000000 0.000000 0.000000 0.000000 0.000000 0.000000 0.000000 0.000000 0.000000 0.000000 0.000000 0.000000 0.000000 0.000000 0.000000 0.000000 0.000000 0.000000 0.000000 0.000000 0.000000 0.000000 0.000000 0.000000 0.000000 0.000000 0.000000 0.000000 0.000000 0.000000 0.000000 -2.785848 -2.235538 17.073738 3.283996 -17.162725 14.529372 -7.150901 20.068741 110.053902 -6.456321 -2.321242 9.792319 0.000000 0.000000 0.000000 0.000000 0.000000 0.000000 0.000000 0.000000 0.000000 0.000000 0.000000 0.000000 0.000000 0.000000 0.000000 0.000000 0.000000 0.000000 0.000000 0.000000 0.000000 0.000000 0.000000 0.000000 0.000000 0.000000 0.000000 0.000000 0.000000 0.000000 0.000000 0.000000 0.000000 0.000000 0.000000 0.000000 0.000000 0.000000 0.000000 0.000000 0.000000 0.000000
0.160098 -0.149834 1.006089 -14.408158 -4.410980 10.863284 -22.825835 -13.298309 -0.092073 57.832616 5.636020 -4.672519 -16.282942 5.302851 8.247820 -0.838311 -6.370891 -0.865525 -14.517128 1.660491 -4.430278 47.951686 -8.746391 -7.148975 -24.352676 8.265235 -12.873593 2.192878 -2.567546 0.436495 20.473069 0.424733 4.686041 8.044726 -0.772510 -5.296817 -6.898690 0.620632 2.939841 5.106840 2.422496 12.753121 8.137679 -4.461729 8.627876 -2.997370 6.648615 -20.394058 0.379398 12.161328 -17.880988 1.757794 -12.003324 -91.389253 -4.736827 -5.456256 -19.160214 0.000000 0.000000 0.000000 0.000000 0.000000 0.000000 0.000000 0.000000 0.000000 0.000000 0.000000 0.000000 0.000000 0.000000 0.000000 0.000000 0.000000 0.000000 0.000000 0.000000 0.000000 0.000000 0.000000 0.000000 0.000000 0.000000 0.000000 0.000000 0.000000 0.000000 0.000000 0.000000 0.000000 0.000000 0.000000 0.000000 0.000000 0.000000 0.000000 0.000000 0.000000 0.000000 -3.017211 -1.797378 17.535130 2.662037 -17.187982 15.246227 -6.974404 20.110794 108.036002 -6.304437 -2.744790 9.509668 0.000000 0.000000 0.000000 0.000000 0.000000 0.000000 0.000000 0.000000 0.000000 0.000000 0.000000 0.000000 0.000000 0.000000 0.000000 0.000000 0.000000 0.000000 0.000000 0.000000 0.000000 0.000000 0.000000 0.000000 0.000000 0.000000 0.000000 0.000000 0.000000 0.000000 0.000000 0.000000 0.000000 0.000000 0.000000 0.000000 0.000000 0.000000 0.000000 0.000000 0.000000 0.000000
0.169644 -0.152501 1.007443 -14.816365 -4.965583 11.163860 -22.782531 -14.154056 0.028139 57.520794 5.027579 -4.738377 -15.921747 5.715492 8.383324 -0.894579 -6.375172 -0.881744 -14.146017 1.886166 -4.708655 48.167181 -8.804501 -6.894211 -24.181845 8.293740 -12.921214 2.105903 -2.829811 0.435081 20.552119 0.491291 4.707000 8.074577 -0.757816 -5.271459 -6.985504 0.529480 2.996078 5.598384 2.638116 12.911400 8.236808 -4.347335 8.585327 -3.460132 5.947745 -21.044858 -0.237976 12.995383 -18.546283 1.867988 -12.262272 -89.125548 -2.958233 -5.453925 -18.557667 0.000000 0.000000 0.000000 0.000000 0.000000 0.000000 0.000000 0.000000 0.000000 0.000000 0.000000 0.000000 0.000000 0.000000 0.000000 0.000000 0.000000 0.000000 0.000000 0.000000 0.000000 0.000000 0.000000 0.000000 0.000000 0.000000 0.000000 0.000000 0.000000 0.000000 0.000000 0.000000 0.000000 0.000000 0.000000 0.000000 0.000000 0.000000 0.000000 0.000000 0.000000 0.000000 -3.468877 -0.949831 18.174855 1.859435 -17.418176 16.146052 -6.432035 20.391619 105.380794 -5.651922 -3.138279 9.055814 0.000000 0.000000 0.000000 0.000000 0.000000 0.000000 0.000000 0.000000 0.000000 0.000000 0.000000 0.000000 0.000000 0.000000 0.000000 0.000000 0.000000 0.000000 0.000000 0.000000 0.000000 0.000000 0.000000 0.000000 0.000000 0.000000 0.000000 0.000000 0.000000 0.000000 0.000000 0.000000 0.000000 0.000000 0.000000 0.000000 0.000000 0.000000 0.000000 0.000000 0.000000 0.000000
